<svg width="17" height="17" viewBox="0 0 17 17" fill="none" xmlns="http://www.w3.org/2000/svg">
<g clip-path="url(#clip0_2674_21515)">
<path d="M8.4974 15.5885C12.4095 15.5885 15.5807 12.4173 15.5807 8.50521C15.5807 4.59308 12.4095 1.42188 8.4974 1.42188C4.58527 1.42188 1.41406 4.59308 1.41406 8.50521C1.41406 12.4173 4.58527 15.5885 8.4974 15.5885Z" stroke="#F11A7B" stroke-width="0.894737" stroke-linecap="round" stroke-linejoin="round"/>
<path d="M5.66352 2.125H6.37186C4.99063 6.26278 4.99063 10.7372 6.37186 14.875H5.66352M10.6219 2.125C12.0031 6.26278 12.0031 10.7372 10.6219 14.875" stroke="#F11A7B" stroke-width="1.34211" stroke-linecap="round" stroke-linejoin="round"/>
<path d="M2.125 11.338V10.6297C6.26278 12.0109 10.7372 12.0109 14.875 10.6297V11.338M2.125 6.37967C6.26278 4.99844 10.7372 4.99844 14.875 6.37967" stroke="#F11A7B" stroke-width="0.894737" stroke-linecap="round" stroke-linejoin="round"/>
</g>
<defs>
<clipPath id="clip0_2674_21515">
<rect width="17" height="17" fill="white"/>
</clipPath>
</defs>
</svg>
