<svg width="16" height="14" viewBox="0 0 16 14" fill="none" xmlns="http://www.w3.org/2000/svg">
<path d="M15.9991 2.10994C15.3991 2.37532 14.7658 2.54118 14.0992 2.6407C14.7658 2.24263 15.2991 1.61236 15.5325 0.849394C14.8992 1.21429 14.1992 1.47967 13.4326 1.64553C12.8326 1.01525 11.966 0.617188 11.0327 0.617188C9.23282 0.617188 7.76623 2.07677 7.76623 3.86807C7.76623 4.13345 7.79957 4.36566 7.86623 4.59786C5.16638 4.46517 2.73318 3.17145 1.09994 1.18112C0.833287 1.6787 0.666629 2.20946 0.666629 2.80656C0.666629 3.93442 1.23326 4.92958 2.13321 5.52669C1.59991 5.49351 1.09994 5.36083 0.633298 5.12862V5.16179C0.633298 6.75406 1.76657 8.08095 3.26648 8.3795C2.99983 8.44585 2.69985 8.47902 2.39987 8.47902C2.19988 8.47902 1.96656 8.44585 1.76657 8.41268C2.19988 9.70639 3.39981 10.6684 4.83306 10.6684C3.69979 11.5309 2.29987 12.0616 0.766624 12.0616C0.499972 12.0616 0.23332 12.0616 0 12.0285C1.46658 12.9573 3.16649 13.488 5.03305 13.488C11.066 13.488 14.3659 8.51219 14.3659 4.19979C14.3659 4.06711 14.3659 3.90124 14.3659 3.76855C14.9992 3.33732 15.5658 2.77339 15.9991 2.10994Z" fill="#F11A7B"/>
</svg>
